<svg id="Слой_1" data-name="Слой 1" xmlns="http://www.w3.org/2000/svg" viewBox="0 0 134.36 26.25">
  <defs>
    <style>
      .cls-1 {
        fill: #ef1923;
        fill-rule: evenodd;
      }
    </style>
  </defs>
  <title>nova_pochta</title>
  <path class="cls-1" d="M339.71,391.06v1.85h1v7.59a1.09,1.09,0,0,0,.48.88c0.71,0.37,9,.19,10.5.19,0.77,0,1.65-.13,1.65-1.07v-7.59h1c0-2.62.46-2.14-1.95-2.14-1.19,0-1.46.58-1.46,1.75v6.9h-2.43a0.24,0.24,0,0,1-.29-0.29v-8.36h-2.33v8.66c-3.43,0-2.82.55-2.82-2.24v-5.06a1.15,1.15,0,0,0-.26-1c-0.53-.51-1.83-0.36-2.75-0.36a0.24,0.24,0,0,0-.29.29h0Zm-11.47,4.86c0,3.22,2.42,5.74,5.15,5.74a5.33,5.33,0,0,0,4.42-1.71c3.72-4.39-.06-9.28-3.45-9.28a5.61,5.61,0,0,0-3.15.55,5,5,0,0,0-1.45,1.08,5.25,5.25,0,0,0-1.53,3.62h0Zm5.45-3a3,3,0,0,1,3.11,2.92,3.38,3.38,0,0,1-.85,2.65c-2.57,2.91-7.25-1.28-4.4-4.6a2.94,2.94,0,0,1,2.14-1h0Zm-16.34,0h0.88v8.36c0,0.49.83,0.29,2.14,0.29a0.24,0.24,0,0,0,.29-0.29v-8.36h3.79v7.29c0,1.64,1.61,1.36,3.11,1.36,0.46,0,.29-0.65.29-1.85,0-.39-0.28-0.29-1-0.29v-7.58a1.15,1.15,0,0,0-.42-0.84,2.22,2.22,0,0,0-1-.23h-8.07v2.14h0Zm46.58,6.52h-0.39c0,2.47-.25,2.14,1,2.14a1.64,1.64,0,0,0,1.71-.73l0.63-1.9H370c0.66,2.84,1.23,2.63,3.31,2.63v-2.14c-0.91,0-.56-0.07-1.3-2-0.3-.77-0.51-1.45-0.81-2.21L370,392a6.93,6.93,0,0,1-.38-1.18h-2.33c-0.41.78-2.42,6.74-3,8.25-0.1.25-.06,0.41-0.37,0.41h0Zm4.57-5.35c0.23,1,.65,1.77.87,2.72h-1.85a13.71,13.71,0,0,0,.47-1.37c0.08-.26.14-0.39,0.24-0.64l0.26-.71h0ZM355,391.65v2.24c2.47,0,2.14.25,2.14-1h1.36v8.36c0,0.49.83,0.29,2.14,0.29a0.24,0.24,0,0,0,.29-0.29v-8.36h1.36v1h2.14c0-2.08.35-3.11-1.36-3.11h-6.9a1,1,0,0,0-1.17.88h0Zm-73.48,4.07a5.58,5.58,0,0,0,1.58,4.36,5.69,5.69,0,0,0,6.37,1.06c4.11-1.92,4.19-8.19,0-10a6.51,6.51,0,0,0-2.21-.52,6.45,6.45,0,0,0-2.25.39,5.31,5.31,0,0,0-3.44,4.73h0Zm2.43,0.39a3.07,3.07,0,0,1,5.8-1.53c1.53,3.32-2.33,6.51-4.86,3.89a3.57,3.57,0,0,1-.94-2.36h0Zm9-3.21h1v7.68a0.88,0.88,0,0,0,.87.88c2.51,0,5.41.51,6.49-1.78a3.12,3.12,0,0,0-.44-3.39,1.21,1.21,0,0,0-.6-0.37,1.75,1.75,0,0,1,.49-0.68,2.4,2.4,0,0,0,.36-0.91,2.93,2.93,0,0,0-.22-2,3.4,3.4,0,0,0-3.26-1.6H293v2.14h0Zm5,2h-1.65v-2h1.65a0.9,0.9,0,0,1,.87,1,1,1,0,0,1-.87,1.07h0Zm0,4.47h-1.65V397c0.88,0,2.92-.35,2.92,1.07a1.2,1.2,0,0,1-1.26,1.36h0Zm-27.52-6.52h0.88v8.56h2.43v-4a0.24,0.24,0,0,1,.29-0.29h3.7v4.28h2.43v-8.56H281v-2.14c-3.77,0-3.31-.4-3.31,4.38h-4v-3.21c0-1.5-1.61-1.17-3.31-1.17v2.14h0Zm32.19,6.52h-0.39v2c1.73,0,2.35.26,2.81-1a7.37,7.37,0,0,0,.5-1.54h3.21l0.5,1.55c0.46,1.25,1.08,1,2.81,1v-2c-0.76,0-.69-0.08-1.33-2L309.1,393a18,18,0,0,1-.77-2.25H306l-1.64,4.39c-0.27.74-.52,1.45-0.82,2.2s-0.59,2.07-.94,2.07h0Zm4.53-5.36c0.11,0.79.73,1.93,0.92,2.74h-1.85l0.93-2.74h0Zm-68.12,2a1.06,1.06,0,0,0,.55.94l4.08,4.08c0.31,0.31.38,0.55,0.83,0.44v-8.09c0-3.61.56-3.65-2.86-.23l-2,2a1.34,1.34,0,0,0-.59.83h0Zm7.66-7.8c0,0.41.34,0.29,0.85,0.28,2.64,0,2.2-.38,2.2,3.33,0,2-.23,1.56,4.33,1.56,0.77,0,.64-1,0.64-1.77s0-1.62,0-2.42,0.84-.7,1.71-0.7c2,0,1.78.18-1.61-3.21L253,383.51a1.74,1.74,0,0,0-.71-0.51H252a1.74,1.74,0,0,0-.71.51l-2,2a28.62,28.62,0,0,0-2.61,2.71h0Zm13.2,3.12v9.51c0,1.3.94,0,1.65-.69l1.31-1.31,2-2c0.94-.93.67-0.93-0.64-2.23l-3.26-3.26c-0.16-.16-1-1.28-1-0.05h0Zm-13.13,12.56a3.76,3.76,0,0,0,1.19,1.44c0.49,0.49,3.7,3.88,4.06,3.88a1,1,0,0,0,1-.51l3.94-3.94c1.14-1.14.77-1-1.3-1-1.08,0-.92-0.32-0.92-1.35a32.35,32.35,0,0,0-.06-3.28,0.72,0.72,0,0,0-.65-0.48h-3.55c-0.82,0-.71.93-0.71,1.49q0,1.13,0,2.27c0,1.46.17,1.36-2,1.35a1.55,1.55,0,0,0-1,.14h0Z" transform="translate(-239 -383)"/>
</svg>
