<svg id="Слой_1" data-name="Слой 1" xmlns="http://www.w3.org/2000/svg" viewBox="0 0 32.67 32.67">
  <defs>
    <style>
      .cls-1 {
        fill: none;
        stroke: #00aceb;
        stroke-linecap: round;
        stroke-linejoin: round;
        stroke-width: 1.13px;
      }

      .cls-2 {
        fill: #00aceb;
        fill-rule: evenodd;
      }
    </style>
  </defs>
  <title>twitter</title>
  <g>
    <path class="cls-1" d="M292.51,380.57h25.65a3,3,0,0,1,2.94,2.94v25.65a3,3,0,0,1-2.94,2.94H292.51a3,3,0,0,1-2.94-2.94V383.51a3,3,0,0,1,2.94-2.94h0Z" transform="translate(-289 -380)"/>
    <path class="cls-2" d="M312.1,392.19a5.63,5.63,0,0,1-1.51.41,0,0,0,0,1,0,0,2.76,2.76,0,0,0,1.17-1.46,0,0,0,0,0,0,0,5.58,5.58,0,0,1-1.73.65,0.36,0.36,0,0,1-.15-0.12l-0.16-.14a2.83,2.83,0,0,0-3.83.31,2.75,2.75,0,0,0-.64,2.44,0,0,0,0,1,0,0,8,8,0,0,1-5.72-2.85l0,0a2.71,2.71,0,0,0,.28,3.15,2.78,2.78,0,0,0,.55.49,0,0,0,0,1,0,0,2.84,2.84,0,0,1-1.2-.33h0a2.77,2.77,0,0,0,.52,1.61,2.8,2.8,0,0,0,1.19.94,2.75,2.75,0,0,0,.48.15,0,0,0,0,1,0,0,2.87,2.87,0,0,1-1.19,0,0,0,0,0,0,0,0,2.8,2.8,0,0,0,2.12,1.84,2.85,2.85,0,0,0,.45,0,0,0,0,0,1,0,0,5.7,5.7,0,0,1-3.22,1.16,5.43,5.43,0,0,1-.84,0,0,0,0,0,0,0,0,8,8,0,0,0,3.34,1.16,8.44,8.44,0,0,0,3.33-.29,7.54,7.54,0,0,0,2.55-1.33,7.82,7.82,0,0,0,1.79-2,8.17,8.17,0,0,0,1-2.41,7.45,7.45,0,0,0,.2-2s0,0,0-.05l0,0,0.09-.07,0.19-.15,0.34-.3a5.57,5.57,0,0,0,.6-0.69l0.1-.14a0,0,0,0,0,0,0h0Z" transform="translate(-289 -380)"/>
  </g>
</svg>
