<svg id="Слой_1" data-name="Слой 1" xmlns="http://www.w3.org/2000/svg" viewBox="0 0 31.54 31.54">
  <defs>
    <style>
      .cls-1 {
        fill: #3585c2;
      }

      .cls-1, .cls-2 {
        fill-rule: evenodd;
      }

      .cls-2 {
        fill: #fff;
      }
    </style>
  </defs>
  <title>vk_hover</title>
  <g>
    <path class="cls-1" d="M292.94,381H318.6a3,3,0,0,1,2.94,2.94v25.65a3,3,0,0,1-2.94,2.94H292.94a3,3,0,0,1-2.94-2.94V383.94a3,3,0,0,1,2.94-2.94h0Z" transform="translate(-290 -381)"/>
    <path class="cls-2" d="M312.94,392.91c0.1-.35,0-0.6-0.5-0.6H310.8a0.71,0.71,0,0,0-.72.47,13.77,13.77,0,0,1-2,3.36,1.2,1.2,0,0,1-.77.51c-0.11,0-.26-0.12-0.26-0.47v-3.26c0-.42-0.12-0.6-0.47-0.6H304a0.4,0.4,0,0,0-.42.38c0,0.4.59,0.49,0.65,1.6v2.42c0,0.53-.1.63-0.31,0.63-0.56,0-1.92-2-2.72-4.39a0.71,0.71,0,0,0-.74-0.64h-1.65c-0.47,0-.56.22-0.56,0.47,0,0.44.56,2.6,2.6,5.46a6.41,6.41,0,0,0,5,3c1,0,1.18-.24,1.18-0.64v-1.48c0-.47.1-0.56,0.43-0.56s0.66,0.12,1.64,1.06c1.12,1.12,1.3,1.62,1.93,1.62h1.65a0.5,0.5,0,0,0,.57-0.7,7.05,7.05,0,0,0-1.39-1.93c-0.38-.45-1-0.94-1.13-1.19a0.51,0.51,0,0,1,0-.73,20.6,20.6,0,0,0,2.21-3.78h0Z" transform="translate(-290 -381)"/>
  </g>
</svg>
