<svg id="Слой_1" data-name="Слой 1" xmlns="http://www.w3.org/2000/svg" viewBox="0 0 30.78 30.78">
  <defs>
    <style>
      .cls-1 {
        fill: #2766c3;
      }

      .cls-1, .cls-2 {
        fill-rule: evenodd;
      }

      .cls-2 {
        fill: #fff;
      }
    </style>
  </defs>
  <title>compare_active</title>
  <g>
    <path class="cls-1" d="M294.29,381h22.2a4.3,4.3,0,0,1,4.29,4.29v22.2a4.3,4.3,0,0,1-4.29,4.29h-22.2a4.3,4.3,0,0,1-4.29-4.29v-22.2a4.3,4.3,0,0,1,4.29-4.29h0Z" transform="translate(-290 -381)"/>
    <path class="cls-2" d="M298.4,389.46a1.91,1.91,0,1,1-1.91,1.91,1.91,1.91,0,0,1,1.91-1.91h0Zm0,10a1.91,1.91,0,1,1-1.91,1.91,1.91,1.91,0,0,1,1.91-1.91h0Zm4.38,0.92h11.15a0.36,0.36,0,0,1,.36.36V402a0.36,0.36,0,0,1-.36.36H302.78a0.36,0.36,0,0,1-.36-0.36v-1.27a0.36,0.36,0,0,1,.36-0.36h0Zm-4.38-5.86a1.91,1.91,0,1,1-1.91,1.91,1.91,1.91,0,0,1,1.91-1.91h0Zm4.38,0.92h11.15a0.36,0.36,0,0,1,.36.36v1.27a0.36,0.36,0,0,1-.36.36H302.78a0.36,0.36,0,0,1-.36-0.36v-1.27a0.36,0.36,0,0,1,.36-0.36h0Zm0-5.1h11.15a0.36,0.36,0,0,1,.36.36V392a0.36,0.36,0,0,1-.36.36H302.78a0.36,0.36,0,0,1-.36-0.36v-1.27a0.36,0.36,0,0,1,.36-0.36h0Z" transform="translate(-290 -381)"/>
  </g>
</svg>
