<svg id="Слой_1" data-name="Слой 1" xmlns="http://www.w3.org/2000/svg" viewBox="0 0 15.52 15.52">
  <defs>
    <style>
      .cls-1 {
        fill: #c7c7c7;
      }
    </style>
  </defs>
  <title>expects</title>
  <g>
    <path class="cls-1" d="M305.76,389a7.76,7.76,0,1,1-5.49,2.27,7.74,7.74,0,0,1,5.49-2.27h0Zm4.69,3.08a6.63,6.63,0,1,0,1.94,4.69,6.61,6.61,0,0,0-1.94-4.69h0Z" transform="translate(-298 -389)"/>
    <path class="cls-1" d="M305.19,399.24a0.57,0.57,0,1,1,1.13,0v0.47a0.57,0.57,0,0,1-1.13,0v-0.47h0Zm0-5.42a0.57,0.57,0,1,1,1.13,0v4a0.57,0.57,0,0,1-1.13,0v-4h0Z" transform="translate(-298 -389)"/>
  </g>
</svg>
