<svg id="Слой_1" data-name="Слой 1" xmlns="http://www.w3.org/2000/svg" viewBox="0 0 15.52 15.52">
  <defs>
    <style>
      .cls-1 {
        fill: #fff;
      }
    </style>
  </defs>
  <title>item_ends</title>
  <path class="cls-1" d="M305.76,389a7.76,7.76,0,1,1-5.49,2.27,7.74,7.74,0,0,1,5.49-2.27h0Zm4.69,3.08a6.63,6.63,0,1,0,1.94,4.69,6.61,6.61,0,0,0-1.94-4.69h0ZM303.16,395a0.57,0.57,0,1,1,.8-0.8l1.8,1.8,1.8-1.8a0.57,0.57,0,1,1,.8.8l-1.8,1.8,1.8,1.8a0.57,0.57,0,0,1-.8.8l-1.8-1.8-1.8,1.8a0.57,0.57,0,0,1-.8-0.8l1.8-1.8-1.8-1.8h0Z" transform="translate(-298 -389)"/>
</svg>
