<svg id="Слой_1" data-name="Слой 1" xmlns="http://www.w3.org/2000/svg" viewBox="0 0 17.8 13.86">
  <defs>
    <style>
      .cls-1 {
        fill: #dadada;
        fill-rule: evenodd;
      }
    </style>
  </defs>
  <title>compare_hedder_normal</title>
  <path class="cls-1" d="M298.91,390a1.91,1.91,0,1,1-1.91,1.91,1.91,1.91,0,0,1,1.91-1.91h0Zm0,10A1.91,1.91,0,1,1,297,402a1.91,1.91,0,0,1,1.91-1.91h0Zm4.38,0.92h11.15a0.36,0.36,0,0,1,.36.36v1.27a0.36,0.36,0,0,1-.36.36H303.29a0.36,0.36,0,0,1-.36-0.36v-1.27a0.36,0.36,0,0,1,.36-0.36h0Zm-4.38-5.86A1.91,1.91,0,1,1,297,397a1.91,1.91,0,0,1,1.91-1.91h0Zm4.38,0.92h11.15a0.36,0.36,0,0,1,.36.36v1.27a0.36,0.36,0,0,1-.36.36H303.29a0.36,0.36,0,0,1-.36-0.36v-1.27a0.36,0.36,0,0,1,.36-0.36h0Zm0-5.1h11.15a0.36,0.36,0,0,1,.36.36v1.27a0.36,0.36,0,0,1-.36.36H303.29a0.36,0.36,0,0,1-.36-0.36v-1.27a0.36,0.36,0,0,1,.36-0.36h0Z" transform="translate(-297 -390)"/>
</svg>
