<svg id="Слой_1" data-name="Слой 1" xmlns="http://www.w3.org/2000/svg" viewBox="0 0 97.89 63.87">
  <defs>
    <style>
      .cls-1 {
        fill: #4083ec;
        fill-rule: evenodd;
      }
    </style>
  </defs>
  <title>logo</title>
  <path class="cls-1" d="M290.81,374.44l2-5.89,0.92-2.68H305.2l-1.84,5.28-2,5.64,0.36,0a10,10,0,0,1,4,.59l0.14-.08,0.93-.55h1.08c7.32,0,23.69-1.63,27.71,2.53a16.25,16.25,0,0,1,1.76-1.38c3.35-2.28,7.94-3.42,11.71-1.44a9.28,9.28,0,0,1,4.71,7.57v0.27c0.17,4.49-2.6,8-6.26,10.16,8,0,10.94,9.86,1.44,14.14l-0.19.08-0.2.06c-15.86,5.25-36,7-49.46,17.41l-3.56,2.75L293.26,425c-3.82-6.45-16.52-7.29-23.11-7.65L257,416.61,268.38,410a61.26,61.26,0,0,1,8.91-4.39l0-2.07L277,391.3l-4.74-1.86c-3.06-1.2-5.58-3.38-6.26-6.72-0.82-4,1.42-8,4.09-10.82,2.2-2.33,5.55-4.78,8.73-5.18l7.29-1.07,4.44-.65,0.1,4.49,0.11,5h0Zm-17.05,11.3c-9.51-3.74.69-14.47,5.69-15.1l7.29-1.07,0.62,27.1,9.24-26.83h3l-6,17.33c3.9-5.7,8-8,12.35-5.33l2-1.15h4.8l-2.93,14.57c-1,4.35,4.46,5.61,5.69,0L318,380.33h5.86l0.8,0.89,1.87-.89c5.88-.68,8.35,2.53,7.91,9.06,1.16-9.55,14.38-14.31,15.37-5,0.17,4.54-5.05,8-10.31,8.71-0.26,4.44,1.33,6.52,5.06,5.86,6.22-2.39,9.19,3.05,2.75,6-16.05,5.31-36.43,7-50.64,18-4.18-7.07-14.52-8.94-26.3-9.6,18.92-11.06,25.37-4.47,42-5.06l1.24-7.55c-3.93,2.71-7.29,2.27-10.13-1.07-7.73,7.95-13.19,1.84-10.93-10.4L287.71,403l-6.49.44-0.53-30.83c-6.09,1.73-8.49,7-6.93,13.15h0Zm60.12,5.77c-0.14,7.54,2.43,11.71,10.13,9.53,3-1.37,5.06,1.24,2,2.72-7.43,3.17-16.2,5.08-27.46,4.67l1-6.65,1.76-.19c6.51,1.81,10.87-1.14,12.53-10.07h0Zm6.44-.32a15.12,15.12,0,0,1,3-8.26,2.44,2.44,0,0,1,4,2.85,10,10,0,0,1-7,5.41h0Zm-19,4.17c-0.82,4.44,4.4,5.1,5.43,1.36l2.55-10.94c0.23-3.63-5-5-6-1l-2,10.61h0Zm-15.5-8.28c0.91-5.29-4.13-5.53-5.53-1.36l-2.68,9.79c-0.65,3.9,4.46,5.58,6.36.95l1.86-9.37h0Zm26.07,16.65q1-.16,2-0.36a9.16,9.16,0,0,1-.78-0.75,11.65,11.65,0,0,1-1.25,1.11h0Z" transform="translate(-257 -365)"/>
</svg>
