<svg version="1" xmlns="http://www.w3.org/2000/svg" width="346.667" height="346.667" viewBox="0 0 260.000000 260.000000"><path d="M107 41.5c-4 1.2-53.4 13.9-58.5 15.1-1.1.2-8.7 2.2-17 4.4-8.2 2.3-15.9 4.3-17 4.5-2.8.6-7.2 6.1-7.9 9.9-.5 3-.4 8.6.9 29.6.7 11.8 3 15.6 11.4 19.6 4.3 2 4.4 2.1 33.6 24.8 12.6 9.8 23.1 18.3 23.3 18.7.2.5.8.9 1.3.9s5.6 3.7 11.3 8.2c5.7 4.6 15.8 12.5 22.5 17.7 6.6 5.2 12.3 10.2 12.6 11.1.7 2.1 8.3 7.9 11.4 8.7 2 .5 10.3-1.5 18.1-4.4.8-.3 14.1-4.8 29.5-9.9 15.4-5.2 28.7-9.7 29.5-10.1.8-.3 1.7-.7 2-.8 1-.2 11.6-3.7 13-4.2.8-.3 2-.7 2.5-.9 6.8-1.8 16.3-6.1 18.4-8.2 5.3-5.4 5.9-9.6 6.4-40.4.2-11.6.2-11.7-2.7-14.7-1.7-1.7-3.3-3.1-3.7-3.1-.4 0-3.1-1.6-6.1-3.5-2.9-2-6.5-4.1-8-4.8-1.6-.6-2.8-1.5-2.8-1.9 0-.5-.7-.8-1.5-.8s-1.5-.5-1.5-1c0-.6-.4-1-.9-1-.7 0-26.5-15.3-40.9-24.2-1.5-.9-4.3-2.5-6.2-3.5-1.9-1.1-9.5-5.6-16.8-10.1-7.4-4.5-13.5-8.2-13.7-8.2-.2 0-2.1-1.2-4.2-2.6-2.1-1.4-4.7-3-5.8-3.5-1.1-.5-3.2-1.7-4.7-2.7-15.4-9.9-19.5-11.2-27.8-8.7z"/></svg>