<svg id="Слой_1" data-name="Слой 1" xmlns="http://www.w3.org/2000/svg" viewBox="0 0 32.67 32.67">
  <defs>
    <style>
      .cls-1 {
        fill: none;
        stroke: #3d67bd;
        stroke-linecap: round;
        stroke-linejoin: round;
        stroke-width: 1.13px;
      }

      .cls-2 {
        fill: #3d67bd;
      }
    </style>
  </defs>
  <title>fb</title>
  <g>
    <path class="cls-1" d="M292.51,380.57h25.65a3,3,0,0,1,2.94,2.94v25.65a3,3,0,0,1-2.94,2.94H292.51a3,3,0,0,1-2.94-2.94V383.51a3,3,0,0,1,2.94-2.94h0Z" transform="translate(-289 -380)"/>
    <path class="cls-2" d="M301.87,393.45h1.5v-0.73a4.6,4.6,0,0,1,.28-1.83,2.11,2.11,0,0,1,1-1,4.12,4.12,0,0,1,1.88-.38,8,8,0,0,1,2.27.33l-0.34,1.78a6,6,0,0,0-1.27-.15,1.18,1.18,0,0,0-.86.26,1.44,1.44,0,0,0-.26,1v0.69h2v2h-2v7.67h-2.7v-7.67h-1.5v-2h0Z" transform="translate(-289 -380)"/>
  </g>
</svg>
