<svg id="Слой_1" data-name="Слой 1" xmlns="http://www.w3.org/2000/svg" viewBox="0 0 55.98 33.5">
  <defs>
    <style>
      .cls-1 {
        fill: #fcb131;
      }

      .cls-2 {
        fill: #ed1c2e;
      }

      .cls-3 {
        fill: #fff;
      }

      .cls-4 {
        fill: none;
        stroke: #fff;
        stroke-width: 0.02px;
      }
    </style>
  </defs>
  <title>MasterCard_logo</title>
  <g>
    <polygon class="cls-1" points="39.2 33.5 40.06 33.48 40.91 33.42 41.75 33.31 42.58 33.17 43.39 32.98 44.19 32.75 44.96 32.49 45.73 32.19 46.47 31.85 47.2 31.48 47.9 31.07 48.58 30.64 49.24 30.17 49.87 29.67 50.48 29.15 51.06 28.59 51.62 28.01 52.15 27.4 52.64 26.76 53.11 26.11 53.55 25.42 53.95 24.72 54.32 24 54.66 23.25 54.96 22.49 55.23 21.71 55.45 20.91 55.64 20.11 55.79 19.27 55.89 18.44 55.95 17.59 55.98 16.81 55.98 16.63 55.95 15.86 55.89 15.02 55.79 14.18 55.64 13.36 55.45 12.55 55.23 11.76 54.96 10.98 54.66 10.22 54.32 9.48 53.95 8.76 53.55 8.06 53.11 7.38 52.64 6.72 52.15 6.1 51.62 5.49 51.06 4.91 50.48 4.35 49.87 3.83 49.24 3.33 48.58 2.86 47.9 2.42 47.2 2.02 46.47 1.66 45.73 1.32 44.96 1.02 44.19 0.75 43.39 0.53 42.58 0.34 41.75 0.19 40.91 0.09 40.06 0.02 39.2 0 38.34 0.02 37.48 0.09 36.65 0.19 35.82 0.34 35.01 0.53 34.22 0.75 33.44 1.02 32.68 1.32 31.94 1.66 31.22 2.02 30.52 2.42 29.84 2.86 29.19 3.33 28.55 3.83 27.95 4.35 27.37 4.91 26.81 5.49 26.29 6.1 25.79 6.72 25.33 7.38 24.89 8.06 24.49 8.76 24.12 9.48 23.79 10.22 23.48 10.98 23.23 11.76 23 12.55 22.81 13.36 22.67 14.18 22.56 15.02 22.5 15.86 22.47 16.72 22.5 17.59 22.56 18.44 22.67 19.27 22.81 20.11 23 20.91 23.23 21.71 23.48 22.49 23.79 23.25 24.12 24 24.49 24.72 24.89 25.42 25.33 26.11 25.79 26.76 26.29 27.4 26.81 28.01 27.37 28.59 27.95 29.15 28.55 29.67 29.19 30.17 29.84 30.64 30.52 31.07 31.22 31.48 31.94 31.85 32.68 32.19 33.44 32.49 34.22 32.75 35.01 32.98 35.82 33.17 36.65 33.31 37.48 33.42 38.34 33.48 39.2 33.5 39.2 33.5"/>
    <polygon class="cls-2" points="16.78 33.5 17.64 33.48 18.5 33.42 19.33 33.31 20.16 33.17 20.96 32.98 21.76 32.75 22.54 32.49 23.3 32.19 24.04 31.85 24.76 31.48 25.46 31.07 26.14 30.64 26.79 30.17 27.42 29.67 28.03 29.15 28.61 28.59 29.16 28.01 29.69 27.4 30.19 26.76 30.65 26.11 31.09 25.42 31.49 24.72 31.86 24 32.19 23.25 32.49 22.49 32.75 21.71 32.98 20.91 33.16 20.11 33.31 19.27 33.42 18.44 33.48 17.59 33.5 16.72 33.48 15.86 33.42 15.02 33.31 14.18 33.16 13.36 32.98 12.55 32.75 11.76 32.49 10.98 32.19 10.22 31.86 9.48 31.49 8.76 31.09 8.06 30.65 7.38 30.19 6.72 29.69 6.1 29.16 5.49 28.61 4.91 28.03 4.35 27.42 3.83 26.79 3.33 26.14 2.86 25.46 2.42 24.76 2.02 24.04 1.66 23.3 1.32 22.54 1.02 21.76 0.75 20.96 0.53 20.16 0.34 19.33 0.19 18.5 0.09 17.64 0.02 16.78 0 15.92 0.02 15.06 0.09 14.23 0.19 13.4 0.34 12.59 0.53 11.79 0.75 11.01 1.02 10.25 1.32 9.51 1.66 8.78 2.02 8.08 2.42 7.4 2.86 6.74 3.33 6.11 3.83 5.5 4.35 4.92 4.91 4.36 5.49 3.83 6.1 3.33 6.72 2.87 7.38 2.43 8.06 2.02 8.76 1.66 9.48 1.32 10.22 1.02 10.98 0.75 11.76 0.53 12.55 0.34 13.36 0.19 14.18 0.09 15.02 0.02 15.86 0 16.72 0.02 17.59 0.09 18.44 0.19 19.27 0.34 20.11 0.53 20.91 0.75 21.71 1.02 22.49 1.32 23.25 1.66 24 2.02 24.72 2.43 25.42 2.87 26.11 3.33 26.76 3.83 27.4 4.36 28.01 4.92 28.59 5.5 29.15 6.11 29.67 6.74 30.17 7.4 30.64 8.08 31.07 8.78 31.48 9.51 31.85 10.25 32.19 11.01 32.49 11.79 32.75 12.59 32.98 13.4 33.17 14.23 33.31 15.06 33.42 15.92 33.48 16.78 33.5 16.78 33.5"/>
    <polygon class="cls-1" points="26.03 6.42 34.93 6.42 34.93 5.51 26.8 5.51 26.03 6.42 26.03 6.42"/>
    <polygon class="cls-1" points="24.69 8.45 34.93 8.45 34.93 7.54 25.23 7.54 24.69 8.45 24.69 8.45"/>
    <polygon class="cls-1" points="23.7 10.47 34.93 10.47 34.93 9.56 24.09 9.56 23.7 10.47 23.7 10.47"/>
    <polygon class="cls-1" points="23.02 12.49 34.93 12.49 34.93 11.58 23.3 11.58 23.02 12.49 23.02 12.49"/>
    <polygon class="cls-1" points="23.41 22.27 34.96 22.27 34.96 21.36 23.13 21.36 23.41 22.27 23.41 22.27"/>
    <polygon class="cls-1" points="24.27 24.29 34.96 24.29 34.96 23.38 23.84 23.38 24.27 24.29 24.27 24.29"/>
    <polygon class="cls-1" points="25.46 26.3 34.96 26.3 34.96 25.4 24.89 25.4 25.46 26.3 25.46 26.3"/>
    <polygon class="cls-1" points="27.11 28.33 34.96 28.33 34.96 27.41 26.32 27.41 27.11 28.33 27.11 28.33"/>
    <polygon class="cls-1" points="22.61 14.51 34.93 14.51 34.93 13.6 22.79 13.6 22.61 14.51 22.61 14.51"/>
    <polygon class="cls-1" points="30.12 20.25 34.81 20.25 34.81 19.34 30.29 19.34 30.12 20.25 30.12 20.25"/>
    <polygon class="cls-1" points="30.49 18.23 34.81 18.23 34.81 17.32 30.66 17.32 30.49 18.23 30.49 18.23"/>
    <polygon class="cls-1" points="22.3 17.32 23.52 17.32 23.52 18.23 22.36 18.23 22.3 17.32 22.3 17.32"/>
    <polygon class="cls-3" points="20.03 16.21 19.95 16.21 19.87 16.2 19.8 16.18 19.72 16.17 19.65 16.16 19.58 16.15 19.51 16.14 19.43 16.13 19.35 16.12 19.26 16.11 19.16 16.11 19.05 16.1 18.93 16.1 18.8 16.11 18.65 16.12 18.49 16.13 18.38 16.14 18.27 16.16 18.17 16.2 18.09 16.23 18.01 16.27 17.94 16.31 17.88 16.37 17.83 16.42 17.8 16.48 17.77 16.55 17.75 16.61 17.75 16.68 17.77 16.75 17.8 16.83 17.84 16.9 17.9 16.98 18.01 17.08 18.14 17.17 18.3 17.24 18.47 17.3 18.65 17.36 18.84 17.42 19.03 17.49 19.21 17.56 19.38 17.66 19.54 17.78 19.68 17.92 19.8 18.09 19.89 18.31 19.94 18.56 19.96 18.87 19.94 19.23 19.9 19.49 19.84 19.72 19.74 19.94 19.63 20.12 19.5 20.29 19.35 20.43 19.2 20.55 19.02 20.66 18.84 20.75 18.65 20.82 18.46 20.88 18.26 20.92 18.07 20.95 17.89 20.97 17.7 20.98 17.52 20.99 17.28 20.99 17.05 20.98 16.86 20.98 16.67 20.98 16.5 20.97 16.35 20.96 16.21 20.95 16.08 20.93 15.96 20.92 15.86 20.9 15.75 20.88 15.65 20.85 15.56 20.83 15.47 20.8 15.38 20.76 15.28 20.73 15.53 19.48 15.59 19.49 15.65 19.51 15.73 19.53 15.82 19.55 15.92 19.57 16.04 19.6 16.16 19.63 16.3 19.65 16.44 19.67 16.59 19.69 16.74 19.71 16.9 19.73 17.06 19.73 17.22 19.74 17.39 19.74 17.55 19.73 17.71 19.7 17.85 19.65 17.95 19.59 18.03 19.51 18.08 19.43 18.13 19.34 18.16 19.25 18.18 19.17 18.19 19 18.14 18.86 18.04 18.75 17.9 18.65 17.73 18.57 17.54 18.48 17.31 18.41 17.09 18.31 16.87 18.21 16.65 18.09 16.45 17.95 16.27 17.77 16.13 17.56 16.03 17.3 15.98 17 15.99 16.64 16.02 16.42 16.05 16.21 16.11 16.02 16.18 15.83 16.27 15.66 16.37 15.52 16.49 15.38 16.63 15.25 16.8 15.14 16.98 15.05 17.18 14.97 17.41 14.91 17.66 14.86 17.94 14.82 18.24 14.79 18.57 14.79 18.78 14.79 18.98 14.79 19.15 14.8 19.31 14.8 19.45 14.82 19.58 14.83 19.69 14.84 19.8 14.85 19.89 14.86 19.97 14.88 20.04 14.89 20.11 14.9 20.17 14.91 20.22 14.92 20.27 14.93 20.32 14.94 20.03 16.21 20.03 16.21"/>
    <polygon class="cls-4" points="20.03 16.21 20.03 16.21 19.95 16.21 19.87 16.2 19.8 16.18 19.72 16.17 19.65 16.16 19.58 16.15 19.51 16.14 19.43 16.13 19.35 16.12 19.26 16.11 19.16 16.11 19.05 16.1 18.93 16.1 18.8 16.11 18.65 16.12 18.49 16.13 18.49 16.13 18.38 16.14 18.27 16.16 18.17 16.2 18.09 16.23 18.01 16.27 17.94 16.31 17.88 16.37 17.83 16.42 17.8 16.48 17.77 16.55 17.75 16.61 17.75 16.68 17.77 16.75 17.8 16.83 17.84 16.9 17.9 16.98 17.9 16.98 18.01 17.08 18.14 17.17 18.3 17.24 18.47 17.3 18.65 17.36 18.84 17.42 19.03 17.49 19.21 17.56 19.38 17.66 19.54 17.78 19.68 17.92 19.8 18.09 19.89 18.31 19.94 18.56 19.96 18.87 19.94 19.23 19.94 19.23 19.9 19.49 19.84 19.72 19.74 19.94 19.63 20.12 19.5 20.29 19.35 20.43 19.2 20.55 19.02 20.66 18.84 20.75 18.65 20.82 18.46 20.88 18.26 20.92 18.07 20.95 17.89 20.97 17.7 20.98 17.52 20.99 17.28 20.99 17.05 20.98 16.86 20.98 16.67 20.98 16.5 20.97 16.35 20.96 16.21 20.95 16.08 20.93 15.96 20.92 15.86 20.9 15.75 20.88 15.65 20.85 15.56 20.83 15.47 20.8 15.38 20.76 15.28 20.73 15.53 19.48 15.53 19.48 15.59 19.49 15.65 19.51 15.73 19.53 15.82 19.55 15.92 19.57 16.04 19.6 16.16 19.63 16.3 19.65 16.44 19.67 16.59 19.69 16.74 19.71 16.9 19.73 17.06 19.73 17.22 19.74 17.39 19.74 17.55 19.73 17.55 19.73 17.71 19.7 17.85 19.65 17.95 19.59 18.03 19.51 18.08 19.43 18.13 19.34 18.16 19.25 18.18 19.17 18.18 19.17 18.19 19 18.14 18.86 18.04 18.75 17.9 18.65 17.73 18.57 17.54 18.48 17.31 18.41 17.09 18.31 16.87 18.21 16.65 18.09 16.45 17.95 16.27 17.77 16.13 17.56 16.03 17.3 15.98 17 15.99 16.64 15.99 16.64 16.02 16.42 16.05 16.21 16.11 16.02 16.18 15.83 16.27 15.66 16.37 15.52 16.49 15.38 16.63 15.25 16.8 15.14 16.98 15.05 17.18 14.97 17.41 14.91 17.66 14.86 17.94 14.82 18.24 14.79 18.57 14.79 18.78 14.79 18.98 14.79 19.15 14.8 19.31 14.8 19.45 14.82 19.58 14.83 19.69 14.84 19.8 14.85 19.89 14.86 19.97 14.88 20.04 14.89 20.11 14.9 20.17 14.91 20.22 14.92 20.27 14.93 20.32 14.94 20.03 16.21 20.03 16.21"/>
    <polygon class="cls-3" points="21.37 13.54 22.93 13.54 22.7 14.91 23.64 14.91 23.44 16.18 22.45 16.16 21.9 19.31 21.9 19.42 21.93 19.52 21.98 19.59 22.06 19.65 22.16 19.69 22.27 19.73 22.39 19.75 22.53 19.76 22.66 19.76 22.77 19.74 22.87 19.73 22.96 19.7 23.03 19.68 23.08 19.67 23.12 19.65 23.13 19.65 22.93 20.7 22.89 20.73 22.85 20.75 22.81 20.77 22.77 20.8 22.73 20.81 22.69 20.83 22.64 20.85 22.59 20.86 22.53 20.88 22.47 20.89 22.41 20.9 22.34 20.91 22.27 20.93 22.18 20.94 22.09 20.95 21.99 20.96 21.56 20.96 21.34 20.94 21.14 20.92 20.96 20.89 20.81 20.85 20.68 20.8 20.57 20.74 20.47 20.67 20.4 20.6 20.34 20.52 20.3 20.42 20.27 20.33 20.26 20.22 20.25 20.1 20.25 19.98 20.27 19.85 20.29 19.7 21.37 13.54 21.37 13.54"/>
    <polygon class="cls-4" points="21.37 13.54 22.93 13.54 22.7 14.91 23.64 14.91 23.44 16.18 22.45 16.16 21.9 19.31 21.9 19.31 21.9 19.42 21.93 19.52 21.98 19.59 22.06 19.65 22.16 19.69 22.27 19.73 22.39 19.75 22.53 19.76 22.53 19.76 22.66 19.76 22.77 19.74 22.87 19.73 22.96 19.7 23.03 19.68 23.08 19.67 23.12 19.65 23.13 19.65 22.93 20.7 22.93 20.7 22.89 20.73 22.85 20.75 22.81 20.77 22.77 20.8 22.73 20.81 22.69 20.83 22.64 20.85 22.59 20.86 22.53 20.88 22.47 20.89 22.41 20.9 22.34 20.91 22.27 20.93 22.18 20.94 22.09 20.95 21.99 20.96 21.56 20.96 21.56 20.96 21.34 20.94 21.14 20.92 20.96 20.89 20.81 20.85 20.68 20.8 20.57 20.74 20.47 20.67 20.4 20.6 20.34 20.52 20.3 20.42 20.27 20.33 20.26 20.22 20.25 20.1 20.25 19.98 20.27 19.85 20.29 19.7 21.37 13.54 21.37 13.54"/>
    <polygon class="cls-3" points="24.89 18.31 24.88 18.41 24.87 18.51 24.88 18.62 24.9 18.73 24.94 18.84 24.99 18.94 25.05 19.04 25.12 19.14 25.2 19.24 25.28 19.32 25.37 19.41 25.47 19.47 25.58 19.54 25.69 19.59 25.8 19.63 25.91 19.65 26.06 19.67 26.2 19.69 26.35 19.7 26.5 19.72 26.64 19.72 26.8 19.72 26.94 19.72 27.1 19.7 27.25 19.68 27.4 19.65 27.56 19.62 27.71 19.57 27.87 19.51 28.03 19.44 28.19 19.35 28.36 19.25 28.13 20.64 28.04 20.69 27.95 20.73 27.86 20.77 27.77 20.8 27.69 20.83 27.6 20.86 27.51 20.88 27.41 20.9 27.31 20.91 27.2 20.93 27.08 20.94 26.95 20.95 26.8 20.95 26.65 20.95 26.47 20.96 26.29 20.96 26.01 20.95 25.73 20.93 25.45 20.89 25.16 20.82 24.89 20.73 24.62 20.63 24.37 20.48 24.13 20.32 23.91 20.13 23.72 19.9 23.55 19.64 23.42 19.34 23.32 19 23.26 18.63 23.24 18.21 23.27 17.74 23.29 17.56 23.33 17.35 23.37 17.13 23.43 16.9 23.52 16.65 23.62 16.41 23.75 16.16 23.91 15.92 24.09 15.7 24.31 15.48 24.56 15.29 24.84 15.12 25.17 14.98 25.54 14.88 25.94 14.81 26.4 14.79 26.62 14.79 26.85 14.82 27.09 14.86 27.32 14.91 27.54 15 27.76 15.1 27.97 15.23 28.15 15.39 28.32 15.59 28.46 15.81 28.58 16.07 28.66 16.37 28.7 16.71 28.71 17.09 28.67 17.52 28.58 18 28.55 18.34 24.43 18.34 24.69 17.23 27.17 17.23 27.18 17.09 27.18 16.95 27.16 16.83 27.14 16.71 27.1 16.61 27.06 16.51 27.01 16.43 26.95 16.35 26.88 16.28 26.81 16.22 26.72 16.17 26.64 16.13 26.55 16.09 26.46 16.07 26.36 16.05 26.26 16.04 26.15 16.05 26.05 16.07 25.95 16.09 25.86 16.12 25.76 16.17 25.68 16.22 25.59 16.28 25.52 16.35 25.45 16.43 25.38 16.51 25.32 16.6 25.27 16.7 25.21 16.8 25.18 16.91 25.14 17.03 25.12 17.14 24.89 18.31 24.89 18.31"/>
    <polygon class="cls-4" points="24.89 18.31 24.89 18.31 24.88 18.41 24.87 18.51 24.88 18.62 24.9 18.73 24.94 18.84 24.99 18.94 25.05 19.04 25.12 19.14 25.2 19.24 25.28 19.32 25.37 19.41 25.47 19.47 25.58 19.54 25.69 19.59 25.8 19.63 25.91 19.65 25.91 19.65 26.06 19.67 26.2 19.69 26.35 19.7 26.5 19.72 26.64 19.72 26.8 19.72 26.94 19.72 27.1 19.7 27.25 19.68 27.4 19.65 27.56 19.62 27.71 19.57 27.87 19.51 28.03 19.44 28.19 19.35 28.36 19.25 28.13 20.64 28.13 20.64 28.04 20.69 27.95 20.73 27.86 20.77 27.77 20.8 27.69 20.83 27.6 20.86 27.51 20.88 27.41 20.9 27.31 20.91 27.2 20.93 27.08 20.94 26.95 20.95 26.8 20.95 26.65 20.95 26.47 20.96 26.29 20.96 26.29 20.96 26.01 20.95 25.73 20.93 25.45 20.89 25.16 20.82 24.89 20.73 24.62 20.63 24.37 20.48 24.13 20.32 23.91 20.13 23.72 19.9 23.55 19.64 23.42 19.34 23.32 19 23.26 18.63 23.24 18.21 23.27 17.74 23.27 17.74 23.29 17.56 23.33 17.35 23.37 17.13 23.43 16.9 23.52 16.65 23.62 16.41 23.75 16.16 23.91 15.92 24.09 15.7 24.31 15.48 24.56 15.29 24.84 15.12 25.17 14.98 25.54 14.88 25.94 14.81 26.4 14.79 26.4 14.79 26.62 14.79 26.85 14.82 27.09 14.86 27.32 14.91 27.54 15 27.76 15.1 27.97 15.23 28.15 15.39 28.32 15.59 28.46 15.81 28.58 16.07 28.66 16.37 28.7 16.71 28.71 17.09 28.67 17.52 28.58 18 28.55 18.34 24.43 18.34 24.69 17.23 27.17 17.23 27.17 17.23 27.18 17.09 27.18 16.95 27.16 16.83 27.14 16.71 27.1 16.61 27.06 16.51 27.01 16.43 26.95 16.35 26.88 16.28 26.81 16.22 26.72 16.17 26.64 16.13 26.55 16.09 26.46 16.07 26.36 16.05 26.26 16.04 26.26 16.04 26.15 16.05 26.05 16.07 25.95 16.09 25.86 16.12 25.76 16.17 25.68 16.22 25.59 16.28 25.52 16.35 25.45 16.43 25.38 16.51 25.32 16.6 25.27 16.7 25.21 16.8 25.18 16.91 25.14 17.03 25.12 17.14 24.89 18.31 24.89 18.31"/>
    <polygon class="cls-3" points="38.37 15.25 38.3 15.21 38.22 15.17 38.14 15.13 38.06 15.09 37.97 15.06 37.88 15.03 37.78 14.99 37.68 14.96 37.57 14.93 37.47 14.91 37.35 14.88 37.23 14.87 37.1 14.86 36.97 14.85 36.55 14.85 36.4 14.86 36.25 14.87 36.09 14.9 35.93 14.95 35.78 15.01 35.62 15.09 35.46 15.19 35.31 15.31 35.16 15.46 35.02 15.64 34.88 15.85 34.76 16.1 34.64 16.38 34.53 16.7 34.44 17.06 34.41 17.26 34.39 17.46 34.37 17.66 34.38 17.85 34.4 18.04 34.44 18.22 34.49 18.39 34.55 18.56 34.63 18.72 34.74 18.86 34.85 18.99 34.99 19.11 35.14 19.21 35.32 19.3 35.51 19.37 35.73 19.42 35.8 19.44 35.88 19.46 35.98 19.47 36.1 19.48 36.22 19.49 36.49 19.49 36.63 19.48 36.78 19.46 36.93 19.43 37.07 19.39 37.21 19.35 37.35 19.29 37.48 19.21 37.6 19.12 37.71 19.02 37.46 20.53 37.43 20.56 37.39 20.59 37.35 20.63 37.3 20.66 37.23 20.71 37.16 20.75 37.06 20.79 36.96 20.82 36.83 20.86 36.69 20.89 36.52 20.91 36.32 20.94 36.1 20.95 35.84 20.95 35.56 20.95 35.24 20.93 34.98 20.9 34.72 20.85 34.46 20.76 34.2 20.65 33.95 20.51 33.71 20.34 33.49 20.15 33.28 19.92 33.09 19.67 32.93 19.38 32.8 19.07 32.7 18.72 32.63 18.34 32.61 17.94 32.62 17.5 32.68 17.03 32.72 16.8 32.78 16.57 32.83 16.35 32.89 16.14 32.95 15.95 33.02 15.75 33.1 15.56 33.18 15.39 33.26 15.21 33.35 15.05 33.44 14.89 33.54 14.74 33.65 14.6 33.76 14.47 33.87 14.34 33.99 14.22 34.12 14.11 34.25 14 34.39 13.91 34.53 13.82 34.68 13.73 34.83 13.66 34.99 13.59 35.15 13.53 35.33 13.47 35.51 13.43 35.69 13.39 35.88 13.35 36.07 13.32 36.27 13.3 36.48 13.29 36.69 13.29 36.87 13.29 37.05 13.3 37.22 13.32 37.39 13.34 37.55 13.37 37.7 13.4 37.84 13.43 37.98 13.46 38.11 13.49 38.22 13.53 38.33 13.56 38.42 13.6 38.5 13.63 38.57 13.65 38.62 13.67 38.65 13.68 38.37 15.25 38.37 15.25"/>
    <polygon class="cls-4" points="38.37 15.25 38.37 15.25 38.3 15.21 38.22 15.17 38.14 15.13 38.06 15.09 37.97 15.06 37.88 15.03 37.78 14.99 37.68 14.96 37.57 14.93 37.47 14.91 37.35 14.88 37.23 14.87 37.1 14.86 36.97 14.85 36.69 14.85 36.55 14.85 36.4 14.86 36.25 14.87 36.09 14.9 35.93 14.95 35.78 15.01 35.62 15.09 35.46 15.19 35.31 15.31 35.16 15.46 35.02 15.64 34.88 15.85 34.76 16.1 34.64 16.38 34.53 16.7 34.44 17.06 34.44 17.06 34.41 17.26 34.39 17.46 34.37 17.66 34.38 17.85 34.4 18.04 34.44 18.22 34.49 18.39 34.55 18.56 34.63 18.72 34.74 18.86 34.85 18.99 34.99 19.11 35.14 19.21 35.32 19.3 35.51 19.37 35.73 19.42 35.73 19.42 35.8 19.44 35.88 19.46 35.98 19.47 36.1 19.48 36.22 19.49 36.49 19.49 36.63 19.48 36.78 19.46 36.93 19.43 37.07 19.39 37.21 19.35 37.35 19.29 37.48 19.21 37.6 19.12 37.71 19.02 37.46 20.53 37.46 20.53 37.43 20.56 37.39 20.59 37.35 20.63 37.3 20.66 37.23 20.71 37.16 20.75 37.06 20.79 36.96 20.82 36.83 20.86 36.69 20.89 36.52 20.91 36.32 20.94 36.1 20.95 35.84 20.95 35.56 20.95 35.24 20.93 35.24 20.93 34.98 20.9 34.72 20.85 34.46 20.76 34.2 20.65 33.95 20.51 33.71 20.34 33.49 20.15 33.28 19.92 33.09 19.67 32.93 19.38 32.8 19.07 32.7 18.72 32.63 18.34 32.61 17.94 32.62 17.5 32.68 17.03 32.68 17.03 32.72 16.8 32.78 16.57 32.83 16.35 32.89 16.14 32.95 15.95 33.02 15.75 33.1 15.56 33.18 15.39 33.26 15.21 33.35 15.05 33.44 14.89 33.54 14.74 33.65 14.6 33.76 14.47 33.87 14.34 33.99 14.22 34.12 14.11 34.25 14 34.39 13.91 34.53 13.82 34.68 13.73 34.83 13.66 34.99 13.59 35.15 13.53 35.33 13.47 35.51 13.43 35.69 13.39 35.88 13.35 36.07 13.32 36.27 13.3 36.48 13.29 36.69 13.29 36.69 13.29 36.87 13.29 37.05 13.3 37.22 13.32 37.39 13.34 37.55 13.37 37.7 13.4 37.84 13.43 37.98 13.46 38.11 13.49 38.22 13.53 38.33 13.56 38.42 13.6 38.5 13.63 38.57 13.65 38.62 13.67 38.65 13.68 38.37 15.25 38.37 15.25"/>
    <polygon class="cls-3" points="52.28 20.96 50.72 20.96 50.83 20.33 50.83 20.28 50.74 20.39 50.64 20.49 50.55 20.58 50.45 20.66 50.34 20.73 50.24 20.8 50.14 20.85 50.03 20.9 49.93 20.94 49.82 20.96 49.71 20.99 49.6 21.01 49.48 21.03 49.38 21.04 49.27 21.04 49.15 21.04 48.86 21.02 48.59 20.96 48.34 20.86 48.11 20.73 47.91 20.57 47.73 20.38 47.57 20.17 47.43 19.93 47.32 19.68 47.23 19.41 47.17 19.13 47.12 18.85 47.11 18.56 47.11 18.26 47.14 17.98 47.19 17.69 47.27 17.35 47.38 17.04 47.5 16.75 47.64 16.48 47.78 16.22 47.95 16 48.13 15.79 48.31 15.61 48.51 15.44 48.72 15.3 48.94 15.18 49.15 15.08 49.38 15 49.6 14.95 49.83 14.92 50.06 14.91 50.23 14.91 50.38 14.93 50.53 14.96 50.67 15 50.8 15.04 50.91 15.09 51.02 15.16 51.12 15.22 51.21 15.29 51.3 15.36 51.37 15.43 51.44 15.51 51.5 15.58 51.55 15.65 51.59 15.72 51.63 15.79 51.63 15.79 52.02 13.57 53.56 13.57 52.28 20.96 52.28 20.96"/>
    <polygon class="cls-4" points="52.28 20.96 50.72 20.96 50.83 20.33 50.83 20.28 50.74 20.39 50.64 20.49 50.55 20.58 50.45 20.66 50.34 20.73 50.24 20.8 50.14 20.85 50.03 20.9 49.93 20.94 49.82 20.96 49.71 20.99 49.6 21.01 49.48 21.03 49.38 21.04 49.27 21.04 49.15 21.04 49.15 21.04 48.86 21.02 48.59 20.96 48.34 20.86 48.11 20.73 47.91 20.57 47.73 20.38 47.57 20.17 47.43 19.93 47.32 19.68 47.23 19.41 47.17 19.13 47.12 18.85 47.11 18.56 47.11 18.26 47.14 17.98 47.19 17.69 47.19 17.69 47.27 17.35 47.38 17.04 47.5 16.75 47.64 16.48 47.78 16.22 47.95 16 48.13 15.79 48.31 15.61 48.51 15.44 48.72 15.3 48.94 15.18 49.15 15.08 49.38 15 49.6 14.95 49.83 14.92 50.06 14.91 50.06 14.91 50.23 14.91 50.38 14.93 50.53 14.96 50.67 15 50.8 15.04 50.91 15.09 51.02 15.16 51.12 15.22 51.21 15.29 51.3 15.36 51.37 15.43 51.44 15.51 51.5 15.58 51.55 15.65 51.59 15.72 51.63 15.79 51.63 15.79 52.02 13.57 53.56 13.57 52.28 20.96 52.28 20.96"/>
    <polygon class="cls-1" points="49.72 19.59 49.88 19.58 50.03 19.55 50.16 19.51 50.29 19.45 50.41 19.38 50.52 19.29 50.63 19.2 50.73 19.09 50.81 18.98 50.89 18.86 50.97 18.73 51.03 18.59 51.08 18.45 51.13 18.3 51.17 18.15 51.2 18 51.23 17.84 51.24 17.68 51.24 17.52 51.24 17.36 51.22 17.22 51.2 17.08 51.16 16.94 51.11 16.81 51.06 16.7 50.99 16.59 50.91 16.5 50.83 16.42 50.73 16.35 50.63 16.31 50.52 16.28 50.41 16.27 50.25 16.28 50.11 16.3 49.98 16.35 49.85 16.41 49.74 16.48 49.63 16.57 49.53 16.66 49.43 16.77 49.35 16.9 49.27 17.03 49.2 17.16 49.13 17.31 49.08 17.46 49.03 17.61 48.99 17.78 48.95 17.94 48.92 18.19 48.94 18.46 48.98 18.74 49.05 19 49.16 19.24 49.31 19.42 49.5 19.55 49.72 19.59 49.72 19.59"/>
    <polygon class="cls-3" points="15.02 19.7 14.79 20.96 13.37 20.96 13.41 20.73 13.44 20.52 13.46 20.36 13.48 20.28 13.4 20.37 13.31 20.46 13.21 20.54 13.09 20.62 12.95 20.7 12.81 20.77 12.66 20.84 12.51 20.89 12.35 20.94 12.18 20.98 12.02 21.02 11.85 21.04 11.69 21.05 11.52 21.06 11.36 21.04 11.21 21.02 11.01 20.96 10.83 20.91 10.67 20.84 10.53 20.75 10.41 20.66 10.3 20.56 10.21 20.45 10.13 20.34 10.06 20.22 10 20.09 9.96 19.97 9.92 19.85 9.9 19.72 9.88 19.59 9.87 19.46 9.87 19.34 9.89 19.12 9.92 18.91 9.98 18.71 10.05 18.52 10.14 18.34 10.24 18.17 10.36 18.02 10.5 17.87 10.64 17.74 10.8 17.63 10.96 17.52 11.13 17.43 11.31 17.35 11.5 17.29 11.69 17.23 11.89 17.2 11.9 17.2 11.93 17.2 11.97 17.19 12.03 17.18 12.1 17.17 12.18 17.17 12.26 17.16 12.36 17.14 12.46 17.13 12.55 17.12 12.65 17.12 12.74 17.11 12.83 17.1 12.92 17.09 13 17.09 13.19 17.09 13.32 17.09 13.45 17.1 13.57 17.1 13.68 17.11 13.75 17.11 13.81 17.12 13.83 17.12 13.84 17.08 13.87 16.98 13.9 16.86 13.91 16.75 13.89 16.63 13.84 16.51 13.77 16.41 13.68 16.33 13.57 16.25 13.46 16.2 13.32 16.17 13.17 16.16 13.01 16.15 12.84 16.14 12.67 16.14 12.49 16.15 12.3 16.16 12.12 16.18 11.94 16.2 11.77 16.22 11.6 16.24 11.43 16.27 11.29 16.3 11.15 16.33 11.03 16.36 10.92 16.39 10.84 16.43 10.78 16.47 11.18 15.11 11.31 15.05 11.43 15.01 11.57 14.97 11.7 14.94 11.84 14.91 11.98 14.89 12.13 14.87 12.29 14.86 12.44 14.85 12.61 14.84 12.78 14.83 13.32 14.83 13.52 14.84 13.71 14.85 13.87 14.86 14.04 14.88 14.22 14.92 14.4 14.97 14.57 15.04 14.74 15.12 14.91 15.22 15.07 15.32 15.21 15.45 15.34 15.59 15.45 15.74 15.53 15.91 15.59 16.09 15.63 16.28 15.63 16.5 15.59 16.72 15.02 19.7 15.02 19.7"/>
    <polygon class="cls-4" points="15.02 19.7 14.79 20.96 13.37 20.96 13.37 20.96 13.41 20.73 13.44 20.52 13.46 20.36 13.48 20.28 13.48 20.28 13.4 20.37 13.31 20.46 13.21 20.54 13.09 20.62 12.95 20.7 12.81 20.77 12.66 20.84 12.51 20.89 12.35 20.94 12.18 20.98 12.02 21.02 11.85 21.04 11.69 21.05 11.52 21.06 11.36 21.04 11.21 21.02 11.21 21.02 11.01 20.96 10.83 20.91 10.67 20.84 10.53 20.75 10.41 20.66 10.3 20.56 10.21 20.45 10.13 20.34 10.06 20.22 10 20.09 9.96 19.97 9.92 19.85 9.9 19.72 9.88 19.59 9.87 19.46 9.87 19.34 9.89 19.12 9.92 18.91 9.98 18.71 10.05 18.52 10.14 18.34 10.24 18.17 10.36 18.02 10.5 17.87 10.64 17.74 10.8 17.63 10.96 17.52 11.13 17.43 11.31 17.35 11.5 17.29 11.69 17.23 11.89 17.2 11.9 17.2 11.93 17.2 11.97 17.19 12.03 17.18 12.1 17.17 12.18 17.17 12.26 17.16 12.36 17.14 12.46 17.13 12.55 17.12 12.65 17.12 12.74 17.11 12.83 17.1 12.92 17.09 13 17.09 13.06 17.09 13.19 17.09 13.32 17.09 13.45 17.1 13.57 17.1 13.68 17.11 13.75 17.11 13.81 17.12 13.83 17.12 13.83 17.12 13.84 17.08 13.87 16.98 13.9 16.86 13.91 16.75 13.91 16.75 13.89 16.63 13.84 16.51 13.77 16.41 13.68 16.33 13.57 16.25 13.46 16.2 13.32 16.17 13.17 16.16 13.17 16.16 13.01 16.15 12.84 16.14 12.67 16.14 12.49 16.15 12.3 16.16 12.12 16.18 11.94 16.2 11.77 16.22 11.6 16.24 11.43 16.27 11.29 16.3 11.15 16.33 11.03 16.36 10.92 16.39 10.84 16.43 10.78 16.47 11.18 15.11 11.18 15.11 11.31 15.05 11.43 15.01 11.57 14.97 11.7 14.94 11.84 14.91 11.98 14.89 12.13 14.87 12.29 14.86 12.44 14.85 12.61 14.84 12.78 14.83 13.32 14.83 13.52 14.84 13.71 14.85 13.71 14.85 13.87 14.86 14.04 14.88 14.22 14.92 14.4 14.97 14.57 15.04 14.74 15.12 14.91 15.22 15.07 15.32 15.21 15.45 15.34 15.59 15.45 15.74 15.53 15.91 15.59 16.09 15.63 16.28 15.63 16.5 15.59 16.72 15.02 19.7 15.02 19.7"/>
    <polygon class="cls-2" points="13.66 18.23 13.65 18.2 13.63 18.17 13.6 18.16 13.54 18.14 13.48 18.13 13.4 18.13 13.23 18.13 13.14 18.13 13.05 18.14 12.96 18.16 12.87 18.17 12.78 18.18 12.7 18.2 12.63 18.21 12.57 18.23 12.53 18.24 12.49 18.26 12.43 18.28 12.36 18.31 12.29 18.34 12.22 18.38 12.14 18.42 12.06 18.47 11.98 18.52 11.91 18.58 11.84 18.65 11.78 18.72 11.73 18.79 11.69 18.87 11.65 18.96 11.63 19.05 11.63 19.24 11.66 19.39 11.71 19.51 11.79 19.59 11.87 19.65 11.97 19.68 12.06 19.7 12.15 19.7 12.32 19.7 12.47 19.68 12.62 19.66 12.75 19.63 12.86 19.59 12.97 19.54 13.06 19.48 13.15 19.42 13.22 19.37 13.29 19.3 13.35 19.24 13.39 19.17 13.43 19.1 13.47 19.03 13.49 18.97 13.51 18.91 13.56 18.74 13.6 18.56 13.63 18.38 13.66 18.23 13.66 18.23"/>
    <polygon class="cls-3" points="3.13 20.96 1.59 20.96 2.88 13.54 5.55 13.54 5.8 17.94 7.65 13.54 10.44 13.54 9.13 20.96 7.59 20.96 8.57 15.42 8.51 15.42 6.2 20.96 4.47 20.96 4.46 20.73 4.42 20.11 4.37 19.24 4.31 18.23 4.25 17.22 4.2 16.33 4.17 15.69 4.15 15.42 4.07 15.42 4.07 15.42 3.13 20.96 3.13 20.96"/>
    <polygon class="cls-4" points="3.13 20.96 1.59 20.96 2.88 13.54 5.55 13.54 5.8 17.94 7.65 13.54 10.44 13.54 9.13 20.96 7.59 20.96 8.57 15.42 8.51 15.42 6.2 20.96 4.47 20.96 4.47 20.96 4.46 20.73 4.42 20.11 4.37 19.24 4.31 18.23 4.25 17.22 4.2 16.33 4.17 15.69 4.15 15.42 4.07 15.42 4.07 15.42 3.13 20.96 3.13 20.96"/>
    <polygon class="cls-3" points="43.07 19.7 42.83 20.96 41.42 20.96 41.43 20.73 41.43 20.52 41.43 20.37 41.44 20.3 41.37 20.39 41.29 20.47 41.18 20.55 41.07 20.63 40.95 20.7 40.82 20.77 40.67 20.84 40.53 20.9 40.38 20.94 40.22 20.99 40.06 21.02 39.91 21.04 39.74 21.05 39.59 21.06 39.43 21.04 39.28 21.02 39.08 20.96 38.9 20.91 38.74 20.84 38.59 20.75 38.47 20.66 38.36 20.56 38.27 20.45 38.19 20.34 38.12 20.22 38.07 20.09 38.02 19.97 38 19.85 37.97 19.72 37.96 19.59 37.95 19.46 37.95 19.34 37.96 19.12 37.99 18.91 38.04 18.71 38.12 18.52 38.2 18.34 38.31 18.17 38.43 18.02 38.56 17.87 38.7 17.74 38.86 17.63 39.02 17.52 39.2 17.43 39.37 17.35 39.56 17.29 39.74 17.23 39.94 17.2 39.95 17.2 39.97 17.2 40.01 17.19 40.07 17.18 40.14 17.17 40.22 17.17 40.31 17.16 40.4 17.14 40.49 17.13 40.6 17.12 40.69 17.12 40.79 17.11 40.88 17.1 40.96 17.09 41.04 17.09 41.23 17.09 41.37 17.09 41.5 17.1 41.63 17.1 41.73 17.11 41.82 17.11 41.87 17.12 41.9 17.12 41.91 17.08 41.92 16.98 41.94 16.86 41.95 16.75 41.93 16.63 41.88 16.51 41.81 16.41 41.73 16.33 41.63 16.25 41.51 16.2 41.38 16.17 41.25 16.16 41.09 16.15 40.92 16.14 40.74 16.14 40.56 16.15 40.38 16.16 40.2 16.18 40.01 16.2 39.84 16.22 39.67 16.24 39.51 16.27 39.36 16.3 39.22 16.33 39.1 16.36 39 16.39 38.92 16.43 38.86 16.47 39.25 15.11 39.38 15.05 39.51 15.01 39.63 14.97 39.77 14.94 39.91 14.91 40.05 14.89 40.2 14.87 40.35 14.86 40.51 14.85 40.67 14.84 40.84 14.83 41.37 14.83 41.56 14.84 41.76 14.85 41.91 14.86 42.08 14.88 42.26 14.92 42.44 14.97 42.61 15.04 42.79 15.12 42.96 15.22 43.12 15.32 43.26 15.45 43.39 15.59 43.5 15.74 43.59 15.91 43.65 16.09 43.69 16.28 43.69 16.5 43.66 16.72 43.07 19.7 43.07 19.7"/>
    <polygon class="cls-3" points="42.83 21 42.87 20.96 43.1 19.71 43.03 19.7 42.8 20.95 42.83 20.92 42.83 21 42.86 20.99 42.87 20.96 42.83 21 42.83 21"/>
    <polygon class="cls-3" points="41.38 20.96 41.42 21 42.83 21 42.83 20.92 41.42 20.92 41.45 20.96 41.38 20.96 41.38 21 41.42 21 41.38 20.96 41.38 20.96"/>
    <polygon class="cls-3" points="41.47 20.33 41.42 20.28 41.4 20.37 41.39 20.52 41.39 20.73 41.38 20.96 41.45 20.96 41.46 20.73 41.47 20.52 41.47 20.37 41.47 20.33 41.42 20.28 41.47 20.33 41.47 20.33"/>
    <polygon class="cls-3" points="39.27 21.05 39.27 21.05 39.43 21.07 39.59 21.09 39.74 21.08 39.91 21.07 40.07 21.05 40.23 21.02 40.39 20.98 40.55 20.93 40.69 20.88 40.83 20.81 40.97 20.74 41.09 20.66 41.21 20.58 41.31 20.5 41.4 20.41 41.47 20.33 41.42 20.28 41.34 20.37 41.26 20.45 41.16 20.52 41.05 20.6 40.94 20.67 40.8 20.74 40.66 20.81 40.52 20.86 40.38 20.91 40.22 20.95 40.06 20.98 39.91 21 39.74 21.02 39.59 21.02 39.43 21 39.28 20.98 39.28 20.98 39.27 21.05 39.27 21.05"/>
    <polygon class="cls-3" points="37.91 19.34 37.91 19.34 37.91 19.46 37.92 19.59 37.94 19.72 37.96 19.85 37.99 19.98 38.04 20.11 38.09 20.24 38.16 20.36 38.24 20.47 38.33 20.58 38.44 20.69 38.57 20.78 38.72 20.87 38.88 20.94 39.07 21 39.27 21.05 39.28 20.98 39.08 20.93 38.91 20.88 38.75 20.8 38.61 20.72 38.49 20.63 38.39 20.54 38.3 20.43 38.22 20.32 38.16 20.2 38.1 20.08 38.06 19.96 38.03 19.84 38.01 19.71 37.99 19.59 37.98 19.46 37.98 19.34 37.91 19.34 37.91 19.34"/>
    <polygon class="cls-3" points="39.94 17.17 39.94 17.17 39.74 17.2 39.55 17.25 39.36 17.32 39.18 17.39 39 17.48 38.83 17.6 38.68 17.72 38.53 17.85 38.4 17.99 38.28 18.15 38.17 18.32 38.08 18.51 38.01 18.7 37.96 18.9 37.92 19.12 37.91 19.34 37.98 19.34 37.99 19.12 38.02 18.91 38.08 18.72 38.15 18.53 38.23 18.35 38.34 18.2 38.45 18.04 38.58 17.9 38.73 17.77 38.88 17.65 39.04 17.55 39.21 17.46 39.38 17.38 39.57 17.32 39.75 17.27 39.94 17.23 39.94 17.17 39.94 17.17"/>
    <polygon class="cls-3" points="41.1 17.05 41.04 17.05 40.96 17.06 40.88 17.07 40.79 17.07 40.69 17.08 40.6 17.09 40.49 17.1 40.4 17.11 40.31 17.12 40.22 17.13 40.14 17.14 40.07 17.15 40.01 17.16 39.97 17.16 39.95 17.17 39.94 17.17 39.94 17.23 39.95 17.23 39.98 17.23 40.01 17.22 40.07 17.22 40.14 17.21 40.22 17.2 40.31 17.19 40.4 17.18 40.49 17.17 40.6 17.16 40.69 17.15 40.79 17.14 40.88 17.13 40.96 17.13 41.1 17.13 41.1 17.05 41.1 17.05"/>
    <polygon class="cls-3" points="41.86 17.11 41.9 17.08 41.87 17.08 41.82 17.08 41.73 17.07 41.63 17.06 41.37 17.06 41.23 17.05 41.1 17.05 41.1 17.13 41.37 17.13 41.5 17.14 41.73 17.14 41.82 17.14 41.87 17.15 41.9 17.15 41.93 17.12 41.9 17.15 41.92 17.16 41.93 17.12 41.86 17.11 41.86 17.11"/>
    <polygon class="cls-3" points="41.92 16.75 41.91 16.75 41.91 16.86 41.89 16.97 41.87 17.07 41.86 17.11 41.93 17.12 41.94 17.08 41.96 16.98 41.98 16.86 41.99 16.75 41.92 16.75 41.92 16.75"/>
    <polygon class="cls-3" points="41.25 16.19 41.25 16.2 41.38 16.2 41.49 16.23 41.61 16.29 41.7 16.35 41.78 16.43 41.85 16.53 41.9 16.63 41.92 16.75 41.99 16.75 41.96 16.62 41.92 16.5 41.84 16.39 41.75 16.3 41.64 16.22 41.52 16.17 41.39 16.13 41.25 16.12 41.25 16.19 41.25 16.19"/>
    <polygon class="cls-3" points="38.82 16.46 38.88 16.5 38.94 16.47 39.01 16.43 39.1 16.39 39.23 16.36 39.36 16.33 39.51 16.3 39.67 16.27 39.84 16.25 40.01 16.23 40.2 16.21 40.38 16.2 40.56 16.18 41.09 16.18 41.25 16.19 41.25 16.12 41.09 16.12 40.92 16.11 40.74 16.11 40.56 16.12 40.38 16.13 40.2 16.14 40.01 16.16 39.84 16.18 39.66 16.21 39.5 16.23 39.35 16.26 39.22 16.29 39.09 16.33 38.98 16.36 38.9 16.4 38.83 16.44 38.89 16.47 38.82 16.46 38.82 16.46"/>
    <polygon class="cls-3" points="39.24 15.07 39.22 15.1 38.82 16.46 38.89 16.47 39.28 15.11 39.26 15.14 39.24 15.07 39.22 15.08 39.22 15.1 39.24 15.07 39.24 15.07"/>
    <polygon class="cls-3" points="41.76 14.81 41.76 14.81 41.56 14.8 41.37 14.79 40.84 14.79 40.67 14.8 40.51 14.81 40.35 14.82 40.2 14.83 40.05 14.86 39.91 14.88 39.77 14.91 39.63 14.94 39.49 14.97 39.36 15.02 39.24 15.07 39.26 15.14 39.39 15.09 39.52 15.04 39.64 15 39.78 14.97 39.92 14.95 40.06 14.92 40.2 14.9 40.35 14.89 40.51 14.88 40.67 14.87 41.37 14.87 41.56 14.88 41.76 14.88 41.76 14.81 41.76 14.81"/>
    <polygon class="cls-3" points="43.69 16.73 43.69 16.73 43.72 16.5 43.72 16.28 43.68 16.08 43.62 15.9 43.53 15.72 43.42 15.56 43.28 15.42 43.14 15.3 42.98 15.19 42.81 15.09 42.63 15.01 42.45 14.94 42.26 14.89 42.09 14.85 41.91 14.82 41.76 14.81 41.76 14.88 41.91 14.89 42.08 14.92 42.25 14.96 42.43 15.01 42.6 15.08 42.77 15.16 42.94 15.25 43.09 15.35 43.23 15.48 43.36 15.61 43.47 15.76 43.55 15.92 43.61 16.09 43.65 16.28 43.65 16.5 43.63 16.71 43.63 16.71 43.69 16.73 43.69 16.73"/>
    <polygon class="cls-3" points="43.1 19.71 43.1 19.71 43.69 16.73 43.63 16.71 43.03 19.7 43.03 19.7 43.1 19.71 43.1 19.71"/>
    <polygon class="cls-1" points="41.7 18.23 41.69 18.2 41.66 18.17 41.63 18.15 41.57 18.13 41.51 18.13 41.43 18.12 41.35 18.12 41.26 18.13 41.17 18.14 41.08 18.15 40.99 18.16 40.91 18.17 40.82 18.19 40.75 18.2 40.67 18.22 40.62 18.23 40.58 18.24 40.53 18.25 40.48 18.27 40.41 18.29 40.34 18.33 40.27 18.36 40.2 18.4 40.12 18.45 40.05 18.5 39.97 18.56 39.91 18.63 39.85 18.7 39.8 18.78 39.76 18.86 39.73 18.95 39.71 19.05 39.7 19.24 39.73 19.39 39.78 19.51 39.84 19.59 39.93 19.65 40.02 19.68 40.12 19.7 40.22 19.7 40.39 19.7 40.55 19.68 40.69 19.65 40.82 19.61 40.95 19.57 41.05 19.52 41.16 19.46 41.25 19.39 41.33 19.33 41.39 19.26 41.45 19.19 41.51 19.12 41.55 19.05 41.57 18.98 41.6 18.91 41.61 18.85 41.64 18.69 41.66 18.53 41.69 18.37 41.7 18.23 41.7 18.23"/>
    <polygon class="cls-3" points="53.34 20.18 53.35 20.05 53.4 19.9 53.47 19.77 53.57 19.65 53.69 19.55 53.83 19.48 53.97 19.44 54.13 19.42 54.29 19.44 54.44 19.48 54.57 19.55 54.69 19.65 54.79 19.77 54.87 19.9 54.91 20.05 54.92 20.18 54.75 20.18 54.75 20.08 54.71 19.96 54.66 19.85 54.58 19.75 54.49 19.67 54.38 19.61 54.26 19.57 54.13 19.56 54 19.57 53.88 19.61 53.77 19.67 53.68 19.75 53.6 19.85 53.55 19.96 53.51 20.08 53.5 20.18 53.34 20.18 53.34 20.18"/>
    <polygon class="cls-3" points="53.85 20.18 53.85 19.85 54.16 19.85 54.23 19.85 54.29 19.86 54.33 19.88 54.37 19.9 54.4 19.94 54.42 19.97 54.44 20.01 54.44 20.05 54.44 20.1 54.42 20.14 54.41 20.17 54.4 20.18 54.16 20.18 54.18 20.18 54.22 20.17 54.25 20.16 54.28 20.15 54.3 20.13 54.32 20.12 54.33 20.09 54.33 20.05 54.32 20.02 54.31 20 54.29 19.99 54.28 19.98 54.25 19.97 54.22 19.96 53.99 19.96 53.99 20.18 53.85 20.18 53.85 20.18"/>
    <polygon class="cls-3" points="53.34 20.18 53.33 20.22 53.35 20.38 53.4 20.54 53.47 20.67 53.57 20.78 53.69 20.88 53.83 20.95 53.97 21 54.13 21.02 54.29 21 54.44 20.95 54.57 20.88 54.69 20.78 54.79 20.67 54.87 20.54 54.91 20.38 54.93 20.22 54.92 20.18 54.75 20.18 54.76 20.22 54.75 20.36 54.71 20.48 54.66 20.59 54.58 20.68 54.49 20.76 54.38 20.82 54.26 20.86 54.13 20.88 54 20.86 53.88 20.82 53.77 20.76 53.68 20.68 53.6 20.59 53.55 20.48 53.51 20.36 53.5 20.22 53.5 20.18 53.34 20.18 53.34 20.18"/>
    <polygon class="cls-3" points="53.85 20.18 53.85 20.53 53.99 20.53 53.99 20.25 54.13 20.25 54.3 20.53 54.41 20.53 54.24 20.25 54.28 20.25 54.32 20.24 54.36 20.23 54.38 20.2 54.4 20.18 54.16 20.18 54.13 20.19 53.99 20.19 53.99 20.18 53.85 20.18 53.85 20.18"/>
    <path class="cls-4" d="M331.33,400.22h0l0-.16,0-.15,0.08-.14,0.1-.12,0.12-.1,0.14-.07,0.15,0,0.16,0h0l0.16,0,0.15,0,0.14,0.07,0.12,0.1,0.1,0.12,0.08,0.14,0,0.15,0,0.16h0l0,0.16,0,0.15-0.08.14-0.1.11-0.12.1-0.14.07-0.15,0-0.16,0h0L332,401l-0.15,0-0.14-.07-0.12-.1-0.1-.11-0.08-.14,0-.15,0-.16h0Zm0.66,0.31h-0.14v-0.68h0.44l0,0,0,0,0,0,0,0V400h0v0.09l0,0,0,0,0,0h-0.11l0.17,0.28H332.3l-0.17-.28H332v0.28h0Zm0.14-.34h0.15l0,0V400H332v0.23h0.14Zm0,0.68h0.13l0.12,0,0.11-.06,0.09-.08,0.07-.1,0.06-.11,0-.12v-0.14h0v-0.14l0-.12-0.06-.11-0.07-.1-0.09-.08-0.11-.06-0.12,0H332l-0.12,0-0.11.06-0.09.08-0.07.1-0.06.11,0,0.12v0.14h0v0.14l0,0.12,0.06,0.11,0.07,0.1,0.09,0.08,0.11,0.06,0.12,0h0.13Z" transform="translate(-278 -380)"/>
    <polygon class="cls-3" points="43.49 20.96 45.08 20.96 45.08 20.96 45.65 17.74 45.68 17.62 45.71 17.5 45.74 17.37 45.79 17.25 45.85 17.12 45.91 17 45.99 16.89 46.08 16.78 46.18 16.69 46.29 16.6 46.42 16.51 46.57 16.44 46.73 16.39 46.91 16.34 47.11 16.31 47.33 16.3 47.47 16.3 47.47 16.3 47.73 14.85 47.57 14.86 47.42 14.87 47.27 14.9 47.14 14.94 47.02 14.99 46.9 15.04 46.78 15.11 46.68 15.17 46.58 15.25 46.48 15.33 46.39 15.42 46.3 15.51 46.21 15.61 46.13 15.71 46.04 15.82 45.96 15.93 46.13 14.91 44.55 14.91 43.49 20.96 43.49 20.96 43.49 20.96"/>
    <polygon class="cls-4" points="43.49 20.96 45.08 20.96 45.08 20.96 45.65 17.74 45.65 17.74 45.68 17.62 45.71 17.5 45.74 17.37 45.79 17.25 45.85 17.12 45.91 17 45.99 16.89 46.08 16.78 46.18 16.69 46.29 16.6 46.42 16.51 46.57 16.44 46.73 16.39 46.91 16.34 47.11 16.31 47.33 16.3 47.47 16.3 47.47 16.3 47.73 14.85 47.73 14.85 47.57 14.86 47.42 14.87 47.27 14.9 47.14 14.94 47.02 14.99 46.9 15.04 46.78 15.11 46.68 15.17 46.58 15.25 46.48 15.33 46.39 15.42 46.3 15.51 46.21 15.61 46.13 15.71 46.04 15.82 45.96 15.93 46.13 14.91 44.55 14.91 43.49 20.96 43.49 20.96 43.49 20.96"/>
    <polygon class="cls-3" points="28.53 20.96 30.15 20.96 30.69 17.74 30.71 17.62 30.74 17.5 30.77 17.38 30.81 17.27 30.85 17.16 30.91 17.05 30.98 16.95 31.06 16.85 31.15 16.77 31.25 16.68 31.37 16.61 31.51 16.55 31.67 16.5 31.84 16.46 32.03 16.43 32.26 16.41 32.27 16.41 32.3 16.42 32.32 16.42 32.35 16.42 32.38 16.43 32.4 16.43 32.42 16.44 32.42 16.44 32.43 16.42 32.45 16.35 32.47 16.25 32.5 16.12 32.54 15.97 32.58 15.82 32.63 15.66 32.68 15.5 32.72 15.39 32.78 15.29 32.84 15.18 32.89 15.08 32.95 15 32.98 14.93 33.01 14.89 33.02 14.87 33.02 14.87 33 14.87 32.97 14.86 32.93 14.86 32.89 14.86 32.84 14.85 32.8 14.85 32.76 14.85 32.59 14.86 32.43 14.87 32.28 14.9 32.15 14.94 32.02 14.98 31.9 15.04 31.79 15.09 31.69 15.16 31.59 15.23 31.5 15.32 31.42 15.4 31.33 15.5 31.25 15.6 31.17 15.7 31.09 15.82 31 15.93 31.2 14.91 29.58 14.91 28.53 20.96 28.53 20.96 28.53 20.96"/>
    <polygon class="cls-4" points="28.53 20.96 30.15 20.96 30.69 17.74 30.69 17.74 30.71 17.62 30.74 17.5 30.77 17.38 30.81 17.27 30.85 17.16 30.91 17.05 30.98 16.95 31.06 16.85 31.15 16.77 31.25 16.68 31.37 16.61 31.51 16.55 31.67 16.5 31.84 16.46 32.03 16.43 32.26 16.41 32.27 16.41 32.3 16.42 32.32 16.42 32.35 16.42 32.38 16.43 32.4 16.43 32.42 16.44 32.42 16.44 32.42 16.44 32.43 16.42 32.45 16.35 32.47 16.25 32.5 16.12 32.54 15.97 32.58 15.82 32.63 15.66 32.68 15.5 32.68 15.5 32.72 15.39 32.78 15.29 32.84 15.18 32.89 15.08 32.95 15 32.98 14.93 33.01 14.89 33.02 14.87 33.02 14.87 33 14.87 32.97 14.86 32.93 14.86 32.89 14.86 32.84 14.85 32.8 14.85 32.76 14.85 32.76 14.85 32.59 14.86 32.43 14.87 32.28 14.9 32.15 14.94 32.02 14.98 31.9 15.04 31.79 15.09 31.69 15.16 31.59 15.23 31.5 15.32 31.42 15.4 31.33 15.5 31.25 15.6 31.17 15.7 31.09 15.82 31 15.93 31.2 14.91 29.58 14.91 28.53 20.96 28.53 20.96 28.53 20.96"/>
    <polygon class="cls-1" points="53.35 26.9 53.35 26.88 53.4 26.73 53.47 26.61 53.57 26.49 53.69 26.4 53.83 26.33 53.97 26.29 54.13 26.28 54.29 26.29 54.44 26.33 54.57 26.4 54.69 26.49 54.79 26.61 54.87 26.73 54.91 26.88 54.91 26.9 54.75 26.9 54.71 26.79 54.66 26.68 54.58 26.58 54.49 26.5 54.38 26.44 54.26 26.4 54.13 26.39 54 26.4 53.88 26.44 53.77 26.5 53.68 26.58 53.6 26.68 53.55 26.79 53.51 26.9 53.35 26.9 53.35 26.9"/>
    <polygon class="cls-1" points="53.85 26.9 53.85 26.71 54.23 26.71 54.29 26.72 54.33 26.73 54.37 26.75 54.4 26.78 54.42 26.81 54.44 26.85 54.44 26.9 54.33 26.9 54.33 26.88 54.32 26.85 54.31 26.82 54.29 26.81 54.28 26.8 54.25 26.8 54.22 26.79 53.99 26.79 53.99 26.9 53.85 26.9 53.85 26.9"/>
    <polygon class="cls-1" points="53.33 27.03 53.35 26.9 53.51 26.9 53.51 26.91 53.5 27.03 53.33 27.03 53.33 27.03"/>
    <polygon class="cls-1" points="53.85 27.03 53.85 26.9 53.99 26.9 53.99 27.02 54.13 27.02 54.18 27.01 54.22 27 54.25 26.99 54.28 26.98 54.3 26.96 54.32 26.94 54.33 26.91 54.33 26.9 54.44 26.9 54.44 26.9 54.44 26.94 54.42 26.98 54.41 27.01 54.38 27.03 53.85 27.03 53.85 27.03"/>
    <polygon class="cls-1" points="54.76 27.03 54.75 26.91 54.75 26.9 54.91 26.9 54.93 27.03 54.76 27.03 54.76 27.03"/>
    <polygon class="cls-1" points="53.33 27.03 53.33 27.05 53.35 27.21 53.4 27.36 53.47 27.5 53.57 27.62 53.69 27.71 53.83 27.78 53.97 27.82 54.13 27.84 54.29 27.82 54.44 27.78 54.57 27.71 54.69 27.62 54.79 27.5 54.87 27.36 54.91 27.21 54.93 27.05 54.93 27.03 54.76 27.03 54.76 27.05 54.75 27.18 54.71 27.3 54.66 27.41 54.58 27.51 54.49 27.59 54.38 27.65 54.26 27.69 54.13 27.7 54 27.69 53.88 27.65 53.77 27.59 53.68 27.51 53.6 27.41 53.55 27.3 53.51 27.18 53.5 27.05 53.5 27.03 53.33 27.03 53.33 27.03"/>
    <polygon class="cls-1" points="53.85 27.03 53.85 27.36 53.99 27.36 53.99 27.07 54.13 27.07 54.3 27.36 54.41 27.36 54.24 27.07 54.28 27.07 54.32 27.06 54.36 27.05 54.38 27.03 53.85 27.03 53.85 27.03"/>
  </g>
</svg>
