<svg id="Слой_1" data-name="Слой 1" xmlns="http://www.w3.org/2000/svg" viewBox="0 0 50.89 31.84">
  <defs>
    <style>
      .cls-1 {
        fill: #fff;
      }

      .cls-2 {
        fill: #0058a0;
      }

      .cls-3 {
        fill: #faa61a;
      }
    </style>
  </defs>
  <title>visa_logo</title>
  <g>
    <polygon class="cls-1" points="0 0.79 0 30.98 50.9 30.98 50.9 0.79 0 0.79 0 0.79"/>
    <polygon class="cls-2" points="8.43 11.2 11.4 22.4 14.84 22.4 20.2 9.42 16.71 9.42 13.33 18.23 11.95 11.34 8.43 11.2 8.43 11.2"/>
    <polygon class="cls-2" points="21.51 9.38 19.45 22.4 22.71 22.4 24.81 9.38 21.51 9.38 21.51 9.38"/>
    <path class="cls-2" d="M314.39,393.49l0.48-2.73a9.48,9.48,0,0,0-3.16-.57c-1.72,0-5.46,1.1-5.46,4.31s4.64,3.35,4.64,5.12-4.16,1.58-5.41.43L305,402.87a11.63,11.63,0,0,0,3.54.72c1.68,0,5.84-.38,5.84-4.55,0-3.64-4.64-2.92-4.64-5.12,0,0,.48-2.2,4.69-0.43h0Z" transform="translate(-280 -381)"/>
    <path class="cls-2" d="M314.15,403.4h3.59l0.62-1.87h4.4l0.37,1.85h3.11l-2.86-12.86h-2.87a2,2,0,0,0-1.53,1.39c-0.45,1.21-4.84,11.49-4.84,11.49h0Z" transform="translate(-280 -381)"/>
    <polygon class="cls-1" points="42.23 17.85 39.31 17.85 41.13 13.06 42.23 17.85 42.23 17.85"/>
    <path class="cls-2" d="M293,397.43l-1-5.09s-0.14-1.91-1.5-1.91h-5.56v0.27a11.64,11.64,0,0,1,8.09,6.73h0Z" transform="translate(-280 -381)"/>
    <polygon class="cls-3" points="50.9 24.3 0 24.3 0 31.84 50.9 31.84 50.9 24.3 50.9 24.3"/>
    <polygon class="cls-2" points="50.9 0 0 0 0 7.54 50.9 7.54 50.9 0 50.9 0"/>
  </g>
</svg>
